<?xml version="1.0" encoding="utf-8"?>
<svg viewBox="0 0 1091 190" xmlns="http://www.w3.org/2000/svg" xmlns:bx="https://boxy-svg.com">
  <defs>
    <bx:grid x="0" y="0" width="10" height="10"/>
    <radialGradient id="gradient-1" gradientUnits="userSpaceOnUse" cx="89.762" cy="183.751" r="330" gradientTransform="matrix(0.520028, -0.930666, 0.916093, 0.511886, 96.65504, 227.8126)">
      <stop offset="0" style="stop-color: rgb(214, 243, 254);"/>
      <stop offset="1" style="stop-color: rgb(186, 237, 255);"/>
    </radialGradient>
    <linearGradient id="gradient-4" gradientUnits="userSpaceOnUse" x1="330" y1="0" x2="330" y2="660" gradientTransform="matrix(0.980745, -0.195296, 0.195753, 0.983035, -58.663244, 70.697931)">
      <stop offset="0" style="stop-color: rgb(0, 152, 211);"/>
      <stop offset="1" style="stop-color: rgb(0, 145, 202);"/>
    </linearGradient>
    <radialGradient gradientUnits="userSpaceOnUse" cx="128.49" cy="549.302" r="79.806" id="gradient-0" gradientTransform="matrix(3.61644, 0, 0, 3.61644, -133.771149, -1656.69812)">
      <stop offset="0" style="stop-color: rgb(0, 170, 237);"/>
      <stop offset="1" style="stop-color: rgb(0, 145, 202);"/>
    </radialGradient>
  </defs>
  <path d="M 281.068 118.813 Q 282.472 118.813 283.486 119.983 Q 284.5 121.153 284.5 122.713 Q 284.5 126.145 279.196 129.421 Q 267.964 136.129 255.484 136.129 Q 238.168 136.129 228.184 125.677 Q 218.2 115.225 218.2 96.973 Q 218.2 85.273 222.646 76.303 Q 227.092 67.333 235.126 62.419 Q 243.16 57.505 253.612 57.505 Q 268.276 57.505 276.778 66.943 Q 285.28 76.381 285.28 92.917 Q 285.28 95.725 284.032 97.051 Q 282.784 98.377 279.976 98.377 L 228.028 98.377 Q 228.496 112.729 235.516 120.217 Q 242.536 127.705 255.328 127.705 Q 262.036 127.705 266.56 125.911 Q 271.084 124.117 276.232 121.153 Q 279.664 118.813 281.068 118.813 Z M 253.612 65.305 Q 242.692 65.305 236.14 72.169 Q 229.588 79.033 228.34 91.357 L 276.544 91.357 Q 276.232 78.877 270.304 72.091 Q 264.376 65.305 253.612 65.305 Z M 335.04 57.505 Q 348.768 57.505 355.554 64.681 Q 362.34 71.857 362.34 86.365 L 362.34 130.825 Q 362.34 133.009 361.092 134.335 Q 359.844 135.661 357.66 135.661 Q 355.476 135.661 354.228 134.335 Q 352.98 133.009 352.98 130.825 L 352.98 121.465 Q 349.704 128.485 343.464 132.307 Q 337.224 136.129 329.112 136.129 Q 321.78 136.129 315.696 133.165 Q 309.612 130.201 306.102 124.897 Q 302.592 119.593 302.592 113.197 Q 302.592 104.773 306.96 100.093 Q 311.328 95.413 321.468 93.385 Q 331.608 91.357 349.704 91.357 L 352.98 91.357 L 352.98 85.585 Q 352.98 75.289 348.768 70.531 Q 344.556 65.773 335.508 65.773 Q 323.964 65.773 313.512 71.857 Q 313.044 72.169 311.094 73.495 Q 309.144 74.821 307.74 74.821 Q 306.18 74.821 305.166 73.651 Q 304.152 72.481 304.152 70.765 Q 304.152 67.333 309.612 64.057 Q 315.072 60.937 321.78 59.221 Q 328.488 57.505 335.04 57.505 Z M 329.892 127.861 Q 340.032 127.861 346.506 120.997 Q 352.98 114.133 352.98 103.525 L 352.98 98.377 L 350.016 98.377 Q 335.04 98.377 327.084 99.625 Q 319.128 100.873 315.852 103.915 Q 312.576 106.957 312.576 112.729 Q 312.576 119.281 317.568 123.571 Q 322.56 127.861 329.892 127.861 Z M 411.639 136.129 Q 405.087 136.129 398.769 134.335 Q 392.451 132.541 387.615 129.421 Q 384.651 127.393 383.481 125.911 Q 382.311 124.429 382.311 122.557 Q 382.311 120.997 383.325 119.905 Q 384.339 118.813 385.743 118.813 Q 387.147 118.813 390.579 121.153 Q 395.103 124.117 399.861 125.989 Q 404.619 127.861 411.795 127.861 Q 420.999 127.861 426.147 124.507 Q 431.295 121.153 431.295 114.913 Q 431.295 111.169 429.423 108.751 Q 427.551 106.333 423.183 104.539 Q 418.815 102.745 410.703 101.029 Q 396.819 97.909 390.969 92.995 Q 385.119 88.081 385.119 79.813 Q 385.119 69.829 392.919 63.667 Q 400.719 57.505 413.199 57.505 Q 419.283 57.505 424.821 59.065 Q 430.359 60.625 434.415 63.589 Q 439.875 67.333 439.875 70.921 Q 439.875 72.481 438.861 73.651 Q 437.847 74.821 436.443 74.821 Q 434.883 74.821 431.607 72.325 Q 427.395 69.361 423.261 67.567 Q 419.127 65.773 412.731 65.773 Q 404.619 65.773 399.783 69.439 Q 394.947 73.105 394.947 79.345 Q 394.947 82.933 396.585 85.273 Q 398.223 87.613 402.201 89.407 Q 406.179 91.201 413.667 92.917 Q 424.431 95.413 430.203 98.221 Q 435.975 101.029 438.471 104.929 Q 440.967 108.829 440.967 114.913 Q 440.967 124.429 432.933 130.279 Q 424.899 136.129 411.639 136.129 Z M 515.687 60.625 Q 516.935 57.817 519.743 57.817 Q 521.459 57.817 522.863 59.065 Q 524.267 60.313 524.267 62.029 Q 524.267 63.121 523.799 64.057 L 479.651 160.933 Q 478.403 163.585 475.595 163.585 Q 473.879 163.585 472.553 162.493 Q 471.227 161.401 471.227 159.685 Q 471.227 158.749 471.695 157.813 L 482.771 133.633 L 450.791 64.057 Q 450.323 63.121 450.323 62.185 Q 450.323 60.313 451.961 58.987 Q 453.599 57.661 455.471 57.661 Q 458.435 57.661 459.527 60.469 L 487.607 123.493 L 515.687 60.625 Z" style="fill: rgb(132, 134, 136);"/>
  <path d="M 545.954 135.817 Q 542.522 135.817 540.26 133.945 Q 537.998 132.073 537.998 128.329 L 537.998 64.993 Q 537.998 61.249 540.26 59.299 Q 542.522 57.349 545.954 57.349 Q 549.386 57.349 551.57 59.299 Q 553.754 61.249 553.754 64.993 L 553.754 128.329 Q 553.754 132.073 551.57 133.945 Q 549.386 135.817 545.954 135.817 Z M 545.954 42.061 Q 541.43 42.061 538.778 39.565 Q 536.126 37.069 536.126 33.013 Q 536.126 28.957 538.778 26.539 Q 541.43 24.121 545.954 24.121 Q 550.322 24.121 553.052 26.539 Q 555.782 28.957 555.782 33.013 Q 555.782 37.069 553.13 39.565 Q 550.478 42.061 545.954 42.061 Z M 663.108 57.037 Q 688.692 57.037 688.692 87.769 L 688.692 128.329 Q 688.692 131.917 686.508 133.867 Q 684.324 135.817 680.736 135.817 Q 677.304 135.817 675.12 133.867 Q 672.936 131.917 672.936 128.329 L 672.936 87.925 Q 672.936 78.409 669.504 74.119 Q 666.072 69.829 658.74 69.829 Q 650.16 69.829 645.168 75.679 Q 640.176 81.529 640.176 91.669 L 640.176 128.329 Q 640.176 131.917 637.992 133.867 Q 635.808 135.817 632.22 135.817 Q 628.788 135.817 626.604 133.867 Q 624.42 131.917 624.42 128.329 L 624.42 87.925 Q 624.42 78.409 620.988 74.119 Q 617.556 69.829 610.224 69.829 Q 601.644 69.829 596.574 75.679 Q 591.504 81.529 591.504 91.669 L 591.504 128.329 Q 591.504 131.917 589.32 133.867 Q 587.136 135.817 583.704 135.817 Q 580.272 135.817 578.01 133.867 Q 575.748 131.917 575.748 128.329 L 575.748 64.837 Q 575.748 61.405 578.088 59.377 Q 580.428 57.349 583.704 57.349 Q 586.98 57.349 589.086 59.299 Q 591.192 61.249 591.192 64.681 L 591.192 70.453 Q 594.624 63.901 600.708 60.469 Q 606.792 57.037 614.748 57.037 Q 623.484 57.037 629.178 60.625 Q 634.872 64.213 637.68 71.701 Q 641.112 64.993 647.82 61.015 Q 654.528 57.037 663.108 57.037 Z M 742.2 57.037 Q 757.332 57.037 764.742 64.681 Q 772.152 72.325 772.152 87.925 L 772.152 128.329 Q 772.152 131.917 770.124 133.867 Q 768.096 135.817 764.508 135.817 Q 761.076 135.817 759.048 133.789 Q 757.02 131.761 757.02 128.329 L 757.02 122.557 Q 754.056 129.109 748.206 132.619 Q 742.356 136.129 734.556 136.129 Q 727.068 136.129 720.828 133.087 Q 714.588 130.045 711.078 124.585 Q 707.568 119.125 707.568 112.417 Q 707.568 104.149 711.858 99.391 Q 716.148 94.633 726.054 92.605 Q 735.96 90.577 753.276 90.577 L 756.864 90.577 L 756.864 86.053 Q 756.864 77.317 753.276 73.417 Q 749.688 69.517 741.732 69.517 Q 736.272 69.517 731.436 70.921 Q 726.6 72.325 720.828 74.977 Q 716.616 77.317 714.9 77.317 Q 712.56 77.317 711.078 75.601 Q 709.596 73.885 709.596 71.233 Q 709.596 68.893 710.922 67.099 Q 712.248 65.305 715.212 63.589 Q 720.672 60.625 728.004 58.831 Q 735.336 57.037 742.2 57.037 Z M 737.364 124.429 Q 745.944 124.429 751.404 118.579 Q 756.864 112.729 756.864 103.525 L 756.864 99.469 L 754.056 99.469 Q 741.888 99.469 735.336 100.561 Q 728.784 101.653 725.976 104.227 Q 723.168 106.801 723.168 111.637 Q 723.168 117.253 727.224 120.841 Q 731.28 124.429 737.364 124.429 Z M 856.7 57.349 Q 860.288 57.349 862.394 59.455 Q 864.5 61.561 864.5 64.993 L 864.5 128.953 Q 864.5 146.425 855.218 155.317 Q 845.936 164.209 827.84 164.209 Q 810.992 164.209 799.76 157.813 Q 793.988 154.537 793.988 150.013 Q 793.988 147.361 795.47 145.645 Q 796.952 143.929 799.136 143.929 Q 801.164 143.929 805.532 146.269 Q 811.148 148.921 815.984 150.403 Q 820.82 151.885 827.528 151.885 Q 849.056 151.885 849.056 130.201 L 849.056 118.189 Q 845.78 125.053 839.072 128.875 Q 832.364 132.697 823.472 132.697 Q 813.488 132.697 805.688 128.017 Q 797.888 123.337 793.598 114.757 Q 789.308 106.177 789.308 94.945 Q 789.308 83.713 793.676 75.133 Q 798.044 66.553 805.766 61.795 Q 813.488 57.037 823.472 57.037 Q 832.208 57.037 838.838 60.781 Q 845.468 64.525 848.9 71.389 L 848.9 64.837 Q 848.9 61.405 851.006 59.377 Q 853.112 57.349 856.7 57.349 Z M 827.216 120.217 Q 837.356 120.217 843.128 113.509 Q 848.9 106.801 848.9 94.945 Q 848.9 83.245 843.206 76.459 Q 837.512 69.673 827.216 69.673 Q 816.92 69.673 811.07 76.381 Q 805.22 83.089 805.22 94.945 Q 805.22 106.801 811.148 113.509 Q 817.076 120.217 827.216 120.217 Z M 894.454 135.817 Q 891.022 135.817 888.76 133.945 Q 886.498 132.073 886.498 128.329 L 886.498 64.993 Q 886.498 61.249 888.76 59.299 Q 891.022 57.349 894.454 57.349 Q 897.886 57.349 900.07 59.299 Q 902.254 61.249 902.254 64.993 L 902.254 128.329 Q 902.254 132.073 900.07 133.945 Q 897.886 135.817 894.454 135.817 Z M 894.454 42.061 Q 889.93 42.061 887.278 39.565 Q 884.626 37.069 884.626 33.013 Q 884.626 28.957 887.278 26.539 Q 889.93 24.121 894.454 24.121 Q 898.822 24.121 901.552 26.539 Q 904.282 28.957 904.282 33.013 Q 904.282 37.069 901.63 39.565 Q 898.978 42.061 894.454 42.061 Z M 965.276 57.037 Q 992.576 57.037 992.576 87.769 L 992.576 128.329 Q 992.576 131.917 990.47 133.867 Q 988.364 135.817 984.62 135.817 Q 981.032 135.817 978.926 133.789 Q 976.82 131.761 976.82 128.329 L 976.82 88.549 Q 976.82 78.877 972.998 74.353 Q 969.176 69.829 961.064 69.829 Q 951.548 69.829 945.776 75.757 Q 940.004 81.685 940.004 91.669 L 940.004 128.329 Q 940.004 131.761 937.898 133.789 Q 935.792 135.817 932.204 135.817 Q 928.616 135.817 926.432 133.789 Q 924.248 131.761 924.248 128.329 L 924.248 64.837 Q 924.248 61.561 926.51 59.455 Q 928.772 57.349 932.204 57.349 Q 935.636 57.349 937.664 59.377 Q 939.692 61.405 939.692 64.681 L 939.692 71.077 Q 943.436 64.213 950.144 60.625 Q 956.852 57.037 965.276 57.037 Z M 1077.124 57.349 Q 1080.712 57.349 1082.818 59.455 Q 1084.924 61.561 1084.924 64.993 L 1084.924 128.953 Q 1084.924 146.425 1075.642 155.317 Q 1066.36 164.209 1048.264 164.209 Q 1031.416 164.209 1020.184 157.813 Q 1014.412 154.537 1014.412 150.013 Q 1014.412 147.361 1015.894 145.645 Q 1017.376 143.929 1019.56 143.929 Q 1021.588 143.929 1025.956 146.269 Q 1031.572 148.921 1036.408 150.403 Q 1041.244 151.885 1047.952 151.885 Q 1069.48 151.885 1069.48 130.201 L 1069.48 118.189 Q 1066.204 125.053 1059.496 128.875 Q 1052.788 132.697 1043.896 132.697 Q 1033.912 132.697 1026.112 128.017 Q 1018.312 123.337 1014.022 114.757 Q 1009.732 106.177 1009.732 94.945 Q 1009.732 83.713 1014.1 75.133 Q 1018.468 66.553 1026.19 61.795 Q 1033.912 57.037 1043.896 57.037 Q 1052.632 57.037 1059.262 60.781 Q 1065.892 64.525 1069.324 71.389 L 1069.324 64.837 Q 1069.324 61.405 1071.43 59.377 Q 1073.536 57.349 1077.124 57.349 Z M 1047.64 120.217 Q 1057.78 120.217 1063.552 113.509 Q 1069.324 106.801 1069.324 94.945 Q 1069.324 83.245 1063.63 76.459 Q 1057.936 69.673 1047.64 69.673 Q 1037.344 69.673 1031.494 76.381 Q 1025.644 83.089 1025.644 94.945 Q 1025.644 106.801 1031.572 113.509 Q 1037.5 120.217 1047.64 120.217 Z" style="fill: rgb(132, 134, 136);"/>
  <g transform="matrix(0.272727, 0, 0, 0.272727, 4.999998, 4.999996)">
    <circle style="fill: url(&quot;#gradient-1&quot;); stroke: url(&quot;#gradient-4&quot;); stroke-width: 28.9315px;" cx="330" cy="330" r="330"/>
    <path style="fill: url(&quot;#gradient-0&quot;);" d="M 271.234 45.412 C 271.234 45.412 305.402 39.723 334.308 39.835 C 363.215 39.944 388.45 44.938 410.612 51.061 C 431.124 56.731 457.155 68.514 480.17 82.166 C 503.185 95.818 521.6 112.258 521.6 112.258 C 521.6 112.258 519.481 129.711 514.877 149.981 C 510.273 170.259 503.185 193.353 498.289 209.237 C 493.254 225.554 485.002 248.377 477.183 268.246 C 469.361 288.111 461.766 304.671 461.766 304.671 C 461.766 304.671 444.885 269.165 427.211 236.776 C 409.537 204.383 389.926 176.819 372.219 153.261 C 357.432 133.584 333.198 105.615 311.311 83.909 C 289.425 62.199 271.234 45.412 271.234 45.412 Z M 56.32 239.409 C 56.32 239.409 68.475 206.976 83.024 181.998 C 97.573 157.019 114.516 137.66 130.898 121.531 C 146.065 106.598 169.283 89.948 192.616 76.842 C 215.946 63.736 239.391 56.008 239.391 56.008 C 239.391 56.008 253.445 66.572 268.699 80.694 C 283.957 94.82 300.415 112.504 311.72 124.688 C 323.336 137.204 338.974 155.764 352.271 172.468 C 365.565 189.176 376.111 204.033 376.111 204.033 C 376.111 204.033 336.919 200.901 300.032 200.011 C 263.144 199.121 229.464 202.322 200.211 205.877 C 175.774 208.846 139.436 215.848 109.695 223.948 C 79.953 232.049 56.32 239.409 56.32 239.409 Z M 546.854 138.148 C 546.854 138.148 568.867 164.892 583.224 189.983 C 597.582 215.07 605.874 239.423 611.653 261.675 C 616.998 282.278 619.812 310.71 619.494 337.468 C 619.179 364.226 614.148 388.395 614.148 388.395 C 614.148 388.395 597.976 395.284 578.118 401.432 C 558.256 407.584 534.71 412.994 518.508 416.694 C 501.858 420.495 477.968 424.758 456.851 427.923 C 435.735 431.08 417.595 432.783 417.595 432.783 C 417.595 432.783 439.905 400.409 459.119 368.91 C 478.333 337.407 492.401 306.642 503.948 279.529 C 513.597 256.883 525.701 221.912 533.556 192.106 C 541.411 162.295 546.854 138.148 546.854 138.148 Z M 603.748 421.283 C 603.748 421.283 591.593 453.715 577.044 478.694 C 562.495 503.673 545.552 523.032 529.169 539.161 C 514.002 554.093 490.784 570.743 467.451 583.849 C 444.122 596.955 420.676 604.684 420.676 604.684 C 420.676 604.684 406.623 594.12 391.368 579.998 C 376.111 565.872 359.652 548.188 348.347 536.004 C 336.731 523.487 321.094 504.928 307.796 488.223 C 294.502 471.515 283.957 456.659 283.957 456.659 C 283.957 456.659 323.148 459.791 360.036 460.681 C 396.923 461.57 430.603 458.37 459.857 454.815 C 484.293 451.846 520.631 444.844 550.373 436.743 C 580.114 428.642 603.748 421.283 603.748 421.283 Z M 386.96 614.231 C 386.96 614.231 352.799 619.92 323.889 619.807 C 294.983 619.699 269.748 614.705 247.586 608.582 C 227.074 602.911 201.042 591.129 178.027 577.477 C 155.012 563.825 136.598 547.385 136.598 547.385 C 136.598 547.385 138.717 529.932 143.32 509.662 C 147.924 489.384 155.012 466.29 159.909 450.406 C 164.943 434.089 173.196 411.265 181.015 391.397 C 188.837 371.532 196.432 354.972 196.432 354.972 C 196.432 354.972 213.313 390.478 230.987 422.867 C 248.66 455.259 268.272 482.824 285.978 506.381 C 300.766 526.059 325 554.028 346.886 575.734 C 368.773 597.443 386.96 614.231 386.96 614.231 Z M 114.953 521.263 C 114.953 521.263 92.943 494.52 78.586 469.429 C 64.229 444.341 55.936 419.988 50.157 397.736 C 44.812 377.134 41.999 348.701 42.317 321.943 C 42.632 295.185 47.662 271.016 47.662 271.016 C 47.662 271.016 63.835 264.127 83.693 257.979 C 103.554 251.827 127.101 246.417 143.302 242.718 C 159.952 238.917 183.843 234.653 204.959 231.489 C 226.075 228.331 244.216 226.628 244.216 226.628 C 244.216 226.628 221.906 259.003 202.692 290.502 C 183.477 322.005 169.409 352.77 157.862 379.882 C 148.214 402.528 136.109 437.499 128.254 467.306 C 120.399 497.116 114.953 521.263 114.953 521.263 Z"/>
  </g>
</svg>